<svg width="40" height="40" viewBox="0 0 40 40" fill="none" xmlns="http://www.w3.org/2000/svg">
  <!-- Sun -->
  <circle cx="20" cy="15" r="6" fill="#FFD700" stroke="#FFA500" stroke-width="2"/>
  <!-- Sun rays -->
  <line x1="20" y1="5" x2="20" y2="9" stroke="#FFD700" stroke-width="2"/>
  <line x1="20" y1="21" x2="20" y2="25" stroke="#FFD700" stroke-width="2"/>
  <line x1="10" y1="15" x2="14" y2="15" stroke="#FFD700" stroke-width="2"/>
  <line x1="26" y1="15" x2="30" y2="15" stroke="#FFD700" stroke-width="2"/>
  <line x1="13" y1="8" x2="15" y2="10" stroke="#FFD700" stroke-width="2"/>
  <line x1="25" y1="20" x2="27" y2="22" stroke="#FFD700" stroke-width="2"/>
  <line x1="13" y1="22" x2="15" y2="20" stroke="#FFD700" stroke-width="2"/>
  <line x1="25" y1="10" x2="27" y2="8" stroke="#FFD700" stroke-width="2"/>

  <!-- Cloud -->
  <path d="M8 28C8 25.7909 9.79086 24 12 24H16C17.1046 24 18 23.1046 18 22C18 20.8954 17.1046 20 16 20C14.8954 20 14 19.1046 14 18C14 16.8954 15.7909 15 18 15H28C31.3137 15 34 17.6863 34 21C34 24.3137 31.3137 27 28 27H12C9.79086 27 8 25.2091 8 23V28Z" fill="#87CEEB" stroke="#4682B4" stroke-width="2"/>
</svg>